<svg width="50" height="50" viewBox="0 0 50 50" fill="none" xmlns="http://www.w3.org/2000/svg">
<mask id="mask0_0_1" style="mask-type:alpha" maskUnits="userSpaceOnUse" x="0" y="0" width="50" height="50">
<rect width="50" height="50" fill="white"/>
</mask>
<g mask="url(#mask0_0_1)">
<path fill-rule="evenodd" clip-rule="evenodd" d="M5.24112 0.899233C4.04214 -0.299744 2.09821 -0.299744 0.899234 0.899233C-0.299744 2.09821 -0.299744 4.04214 0.899234 5.24112L20.6581 25L0.899234 44.7589C-0.299744 45.9579 -0.299745 47.9018 0.899233 49.1008C2.09821 50.2997 4.04214 50.2997 5.24112 49.1008L25 29.3419L44.7589 49.1008C45.9579 50.2997 47.9018 50.2997 49.1008 49.1008C50.2997 47.9018 50.2997 45.9579 49.1008 44.7589L29.3419 25L49.1008 5.24112C50.2997 4.04214 50.2997 2.09821 49.1008 0.899236C47.9018 -0.299743 45.9579 -0.299743 44.7589 0.899236L25 20.6581L5.24112 0.899233Z" fill="#707070"/>
</g>
</svg>
